<svg xmlns="http://www.w3.org/2000/svg" width="300" height="300" viewBox="0 0 300 300">
  <!-- 创建透明背景 -->
  <rect width="100%" height="100%" fill="none" />

  <!-- 添加SVG图像，调整位置使其居中 -->
  <svg x="115" y="115"  xmlns="http://www.w3.org/2000/svg" width="70" height="70" viewBox="0 0 24 24">
    <path fill="#d36464" d="M19 10a1 1 0 0 0-1 1v3.39l-1.48-1.48a2.77 2.77 0 0 0-3.93 0l-.7.7l-2.48-2.49a2.79 2.79 0 0 0-3.93 0L4 12.6V7a1 1 0 0 1 1-1h8a1 1 0 0 0 0-2H5a3 3 0 0 0-3 3v12a3 3 0 0 0 3 3h12a3 3 0 0 0 3-3v-8a1 1 0 0 0-1-1ZM5 20a1 1 0 0 1-1-1v-3.57l2.9-2.9a.79.79 0 0 1 1.09 0l3.17 3.17l4.29 4.3Zm13-1a.89.89 0 0 1-.18.53L13.31 15l.7-.7a.78.78 0 0 1 1.1 0L18 17.22Zm2.41-14l1.3-1.29a1 1 0 0 0 0-1.41a1 1 0 0 0-1.42 0L19 3.59L17.71 2.3a1 1 0 0 0-1.42 0a1 1 0 0 0 0 1.41L17.59 5l-1.3 1.3a1 1 0 0 0 0 1.41a1 1 0 0 0 1.42 0L19 6.42l1.29 1.29a1 1 0 0 0 1.42 0a1 1 0 0 0 0-1.41Z"></path>
  </svg>
   <!-- 添加文本 "正在加载中..."，调整位置使其居中 -->
   <!-- <text x="50%" y="200" text-anchor="middle"  fill="rgb(255, 222, 0 / 70%)"  font-size="12">图片加载失败...</text> -->
  <!-- <text x="50%" y="200" text-anchor="middle"  fill="rgb(255, 205, 181 / 70%)"  font-size="13">加载中...</text> -->
</svg>
