<?xml version="1.0" standalone="no"?><!DOCTYPE svg PUBLIC "-//W3C//DTD SVG 1.1//EN" "http://www.w3.org/Graphics/SVG/1.1/DTD/svg11.dtd"><svg t="1702374355175" class="icon" viewBox="0 0 1024 1024" version="1.1" xmlns="http://www.w3.org/2000/svg" p-id="24176" xmlns:xlink="http://www.w3.org/1999/xlink" width="200" height="200"><path d="M873.61 873.36l-83.21-83.91c-0.97-0.97-2.04-1.71-3.06-2.52 14.06-21.75 22.26-47.65 22.26-75.55 0-76.66-61.62-138.79-137.67-138.79-76.01 0-137.67 62.13-137.67 138.79 0 76.67 61.66 138.79 137.67 138.79 27.67 0 53.39-8.3 75-22.47 0.79 1.06 1.51 2.1 2.46 3.07l83.22 83.92c5.68 5.71 13.08 8.56 20.49 8.56 7.42 0 14.82-2.85 20.5-8.54 11.31-11.44 11.31-29.94 0.01-41.35m-201.68-67.03c-51.93 0-94.2-42.61-94.2-94.96 0-52.35 42.27-94.97 94.2-94.97s94.2 42.62 94.2 94.97c-0.01 52.36-42.27 94.96-94.2 94.96" fill="#B8D1FF" p-id="24177"></path><path d="M753.11 100.77H195.85c-29.66 0-53.93 24.27-53.93 53.93v647.14c0 29.66 24.27 53.93 53.93 53.93h402.47c-52.15-26.86-87.89-81.11-87.89-143.81 0-89.35 72.43-161.79 161.79-161.79 56.3 0 105.84 28.79 134.82 72.43V154.7c0-29.67-24.27-53.93-53.93-53.93zM249.78 280.53h215.71c14.89 0 26.96 12.07 26.96 26.96s-12.07 26.96-26.96 26.96H249.78c-14.89 0-26.96-12.07-26.96-26.96s12.06-26.96 26.96-26.96z m0 143.81h215.71c14.89 0 26.96 12.07 26.96 26.96s-12.07 26.96-26.96 26.96H249.78c-14.89 0-26.96-12.07-26.96-26.96s12.06-26.96 26.96-26.96z m233.69 197.73H249.78c-14.89 0-26.96-12.07-26.96-26.96s12.07-26.96 26.96-26.96h233.69c14.89 0 26.96 12.07 26.96 26.96s-12.07 26.96-26.96 26.96z" fill="#4B8AFF" p-id="24178"></path><path d="M672.21 711.95m-71.9 0a71.9 71.9 0 1 0 143.8 0 71.9 71.9 0 1 0-143.8 0Z" fill="#4B8AFF" p-id="24179"></path></svg>