<svg t="1703168981151" class="icon" viewBox="0 0 1024 1024" version="1.1" xmlns="http://www.w3.org/2000/svg" p-id="13197" width="200" height="200"><path d="M896.17 460h-300a30 30 0 0 1-30-30V130a30 30 0 0 1 30-30h300a30 30 0 0 1 30 30v300a30 30 0 0 1-30 30z m-270-60h240V160h-240zM429.67 925.64h-300a30 30 0 0 1-30-30v-300a30 30 0 0 1 30-30h300a30 30 0 0 1 30 30v300a30 30 0 0 1-30 30z m-270-60h240v-240h-240zM896.17 925.64h-300a30 30 0 0 1-30-30v-300a30 30 0 0 1 30-30h300a30 30 0 0 1 30 30v300a30 30 0 0 1-30 30z m-270-60h240v-240h-240zM284.93 466c-100.9 0-183-82.09-183-183s82.1-183 183-183 183 82.09 183 183-82.09 183-183 183z m0-306a123 123 0 1 0 123 123 123.14 123.14 0 0 0-123-123z" p-id="13198"></path></svg>
