<?xml version="1.0" standalone="no"?><!DOCTYPE svg PUBLIC "-//W3C//DTD SVG 1.1//EN" "http://www.w3.org/Graphics/SVG/1.1/DTD/svg11.dtd"><svg t="1702306933479" class="icon" viewBox="0 0 1024 1024" version="1.1" xmlns="http://www.w3.org/2000/svg" p-id="4226" xmlns:xlink="http://www.w3.org/1999/xlink" width="200" height="200"><path d="M681.030137 1008.710137c88.512877 0 159.491507-33.244932 159.491507-74.064658 0-40.819726-71.539726-75.046575-159.491507-75.046575s-159.491507 32.82411-159.491507 74.064658 71.539726 75.046575 159.491507 75.046575z m-338.481096 0c87.951781 0 159.491507-33.244932 159.491507-74.064658 0-40.819726-71.539726-75.046575-159.491507-75.046575s-159.491507 32.82411-159.491507 74.064658 71.539726 75.046575 159.491507 75.046575z m0 0" fill="#F5B824" p-id="4227"></path><path d="M176.604932 717.922192C223.87726 861.422466 359.10137 957.369863 510.036164 954.564384h2.945754c151.075068 2.805479 286.299178-93.141918 333.571507-236.642192 49.656986 104.924932 49.656986 83.463014 59.616438 75.046575 83.042192-133.260274-38.715616-286.299178-38.715616-286.299178L834.209315 391.364384C831.123288 14.588493 527.991233 14.588493 512.140274 14.588493c-15.850959 0-319.123288 0-319.123288 376.775891l-36.330959 115.305205S34.928219 660.690411 116.988493 792.968767c9.398356 6.592877 9.819178 29.878356 59.616439-75.046575z m0 0" fill="#121213" p-id="4228"></path><path d="M590.553425 352.648767c35.769863 0 64.666301-40.819726 64.666301-90.897534 0-50.218082-28.756164-90.897534-64.666301-90.897534s-64.526027 42.643288-64.526028 92.300274 28.756164 89.494795 64.526028 89.494794z m-165.94411 0c35.769863 0 64.666301-39.697534 64.666301-89.494794s-28.896438-90.897534-64.666301-90.897535-64.666301 41.240548-64.666301 90.897535 26.932603 89.494795 64.666301 89.494794z m0 0" fill="#FFFFFF" p-id="4229"></path><path d="M445.510137 301.027945c15.430137 0 27.774247-17.393973 27.774247-39.276712s-12.484384-39.276712-27.774247-39.276712c-15.430137 0-27.774247 17.955068-27.774247 39.276712-0.140274 21.321644 12.34411 39.276712 27.774247 39.276712z m167.487123 5.330411c15.430137 0 27.774247-17.393973 27.774247-39.276712s-12.484384-39.276712-27.774247-39.276712c-15.430137 0-27.774247 17.955068-27.774246 39.276712-0.140274 21.461918 12.34411 39.276712 27.774246 39.276712z m0 0" fill="#161616" p-id="4230"></path><path d="M512.140274 938.713425c365.834521 0 261.470685-470.759452 261.470685-470.759452-75.327123 56.249863-167.627397 84.865753-261.470685 81.078356-93.843288 3.927671-186.143562-24.688219-261.470685-81.078356-75.327123-56.249863-104.363836 470.759452 261.470685 470.759452z m0 0" fill="#FAFAFB" p-id="4231"></path><path d="M282.371507 603.598904c-2.945753 33.806027-7.434521 85.426849-7.013699 111.798356 0 41.240548 25.810411 43.765479 84.02411 49.656987 58.213699 6.031781 46.290411-9.959452 46.290411-36.330959v-83.042192c34.787945 7.153973 70.417534 9.678904 105.906849 7.43452 134.803288 5.891507 265.117808-48.815342 355.454247-149.111232-6.873425-39.55726-18.936986-77.992329-35.769863-114.323288-71.399452 104.784658-192.596164 164.401096-319.123288 157.106849-126.246575 7.715068-247.303014-51.340274-319.123288-155.563835-16.552329 36.892055-28.756164 75.607671-36.330959 115.305205 35.769863 39.837808 78.272877 72.661918 125.68548 97.069589z m0 0" fill="#D53118" p-id="4232"></path><path d="M512.561096 487.311781C583.539726 489.135342 653.676712 472.021918 715.818082 437.654795v-3.927672c0-0.981918-7.995616-14.869041-30.860274-21.321644-54.987397-22.163288-113.621918-33.946301-172.957808-34.787945-58.494247 1.122192-116.287123 12.905205-170.432877 34.787945-24.828493 8.416438-34.787945 14.869041-34.787945 23.425754-0.420822 1.262466-0.420822 2.665205 0 3.927671 62.983014 34.086575 134.101918 50.49863 205.781918 47.552877z m0 0" fill="#F0B225" p-id="4233"></path></svg>