<svg t="1702389172420" class="icon" viewBox="0 0 1024 1024" version="1.1" xmlns="http://www.w3.org/2000/svg" p-id="93175" width="200" height="200"><path d="M864.426667 197.12c0-4.693333-4.693333-8.106667-8.106667-8.106667l-85.333333-6.4S711.253333 128 704.426667 123.306667s-2.986667 0-4.693334-2.986667L659.626667 1024 981.333333 956.586667s-116.906667-753.066667-116.906666-759.466667z" fill="#4F9130" p-id="93176"></path><path d="M682.666667 121.6s-11.946667 3.413333-32 9.813333c-19.626667-52.906667-51.2-101.12-111.36-101.12h-4.693334A67.84 67.84 0 0 0 479.573333 0C341.333333 0 274.346667 165.12 256 248.32l-98.133333 29.013333c-30.293333 8.106667-30.293333 9.386667-34.986667 36.693334C119.466667 334.933333 42.666667 916.48 42.666667 916.48L646.4 1024l39.68-903.68s-3.413333 0-3.413333 1.28z m-153.6 38.826667v4.693333c-33.28 9.386667-69.973333 20.906667-106.666667 32a170.666667 170.666667 0 0 1 93.44-128 298.666667 298.666667 0 0 1 13.653333 91.306667z m-55.04-128a48.213333 48.213333 0 0 1 18.346666 4.693333c-44.8 19.2-91.733333 70.4-111.786666 170.666667-29.866667 8.106667-58.453333 17.92-83.2 25.6C319.573333 158.72 376.32 33.706667 474.453333 33.706667z m23.466666 447.146666a183.466667 183.466667 0 0 0-80.213333-19.2c-63.146667 0-66.56 38.4-66.56 47.786667 0 52.906667 145.066667 73.813333 145.066667 197.12a150.613333 150.613333 0 0 1-151.893334 162.133333 213.333333 213.333333 0 0 1-158.293333-62.72L213.333333 718.08a201.813333 201.813333 0 0 0 101.973334 46.506667 42.666667 42.666667 0 0 0 42.666666-40.106667c0-70.826667-118.186667-72.106667-118.186666-187.733333 0-96 71.68-189.013333 213.333333-189.013334a178.773333 178.773333 0 0 1 85.333333 16.213334z m66.56-325.546666v-9.813334A227.84 227.84 0 0 0 554.666667 64c29.866667 3.413333 51.626667 37.12 63.146666 75.52-16.64 4.693333-34.986667 9.386667-53.333333 15.786667z" fill="#89C228" p-id="93177"></path></svg>
