<?xml version="1.0" standalone="no"?><!DOCTYPE svg PUBLIC "-//W3C//DTD SVG 1.1//EN" "http://www.w3.org/Graphics/SVG/1.1/DTD/svg11.dtd"><svg t="1702375587542" class="icon" viewBox="0 0 1024 1024" version="1.1" xmlns="http://www.w3.org/2000/svg" p-id="74764" xmlns:xlink="http://www.w3.org/1999/xlink" width="200" height="200"><path d="M512.9216 510.8224m-450.816 0a450.816 450.816 0 1 0 901.632 0 450.816 450.816 0 1 0-901.632 0Z" fill="#3CD38E" p-id="74765"></path><path d="M794.0608 701.3888l-23.9616-397.5168c-2.4576-41.1136-36.5056-73.1648-77.7216-73.1648h-358.912c-41.1648 0-75.2128 32.0512-77.6704 73.1648l-23.9616 397.5168c-2.7136 44.7488 32.8704 82.5344 77.6704 82.5344h406.8864c44.8 0 80.384-37.7856 77.6704-82.5344z m-120.576-301.2096c-9.7792 79.9744-78.0288 142.1312-160.5632 142.1312-82.5856 0-150.8352-62.1568-160.5632-142.1312a45.00992 45.00992 0 0 1-17.7152-35.7888c0-24.8832 20.1728-45.1072 45.1072-45.1072 24.8832 0 45.1072 20.1728 45.1072 45.1072 0 13.312-5.8368 25.2416-15.0016 33.4848 8.3456 49.408 51.4048 87.1936 103.1168 87.1936s94.8224-37.7856 103.1168-87.1936a44.94336 44.94336 0 0 1-15.0016-33.4848c0-24.8832 20.1728-45.1072 45.1072-45.1072 24.8832 0 45.1072 20.1728 45.1072 45.1072a45.39904 45.39904 0 0 1-17.8176 35.7888z" fill="#FFFFFF" p-id="74766"></path></svg>