<?xml version="1.0" standalone="no"?><!DOCTYPE svg PUBLIC "-//W3C//DTD SVG 1.1//EN" "http://www.w3.org/Graphics/SVG/1.1/DTD/svg11.dtd"><svg t="1702374671831" class="icon" viewBox="0 0 1228 1024" version="1.1" xmlns="http://www.w3.org/2000/svg" p-id="47869" xmlns:xlink="http://www.w3.org/1999/xlink" width="239.84375" height="200"><path d="M136.533333 0h955.733334c75.093333 0 136.533333 61.44 136.533333 136.533333v750.933334c0 75.093333-61.44 136.533333-136.533333 136.533333H136.533333c-75.093333 0-136.533333-61.44-136.533333-136.533333V136.533333c0-75.093333 61.44-136.533333 136.533333-136.533333z" fill="#3477CB" p-id="47870"></path><path d="M925.013333 279.893333H570.026667C556.373333 238.933333 515.413333 204.8 467.626667 204.8s-88.746667 30.72-102.4 75.093333H300.373333c-17.066667 0-30.72 13.653333-30.72 30.72s13.653333 30.72 30.72 30.72h64.853334c13.653333 44.373333 54.613333 75.093333 102.4 75.093334s88.746667-30.72 102.4-75.093334h354.986666c17.066667 0 30.72-13.653333 30.72-30.72s-13.653333-30.72-30.72-30.72z m-453.973333 71.68c-23.893333 0-44.373333-20.48-44.373333-44.373333 0-23.893333 20.48-44.373333 44.373333-44.373333s44.373333 20.48 44.373333 44.373333c0 27.306667-20.48 44.373333-44.373333 44.373333z m453.973333 157.013334h-85.333333c-13.653333-44.373333-54.613333-75.093333-102.4-75.093334s-88.746667 30.72-102.4 75.093334H303.786667c-17.066667 0-30.72 13.653333-30.72 30.72s13.653333 30.72 30.72 30.72h331.093333c13.653333 40.96 54.613333 75.093333 102.4 75.093333s88.746667-30.72 102.4-75.093333h85.333333c17.066667 0 30.72-13.653333 30.72-30.72s-13.653333-30.72-30.72-30.72zM737.28 580.266667c-23.893333 0-44.373333-20.48-44.373333-44.373334 0-23.893333 20.48-40.96 44.373333-40.96s44.373333 20.48 44.373333 40.96c0 27.306667-20.48 44.373333-44.373333 44.373334z m187.733333 150.186666H576.853333c-6.826667-51.2-51.2-88.746667-105.813333-88.746666s-95.573333 37.546667-105.813333 88.746666H303.786667c-17.066667 0-30.72 13.653333-30.72 30.72s13.653333 30.72 30.72 30.72H375.466667c17.066667 34.133333 54.613333 58.026667 95.573333 58.026667s78.506667-23.893333 95.573333-58.026667h358.4c17.066667 3.413333 30.72-13.653333 30.72-30.72s-13.653333-30.72-30.72-30.72z m-453.973333 61.44c-23.893333 0-44.373333-20.48-44.373333-44.373333s20.48-44.373333 44.373333-44.373333 44.373333 20.48 44.373333 44.373333-20.48 44.373333-44.373333 44.373333z" fill="#FFFFFF" p-id="47871"></path><path d="M737.28 433.493333c58.026667 0 105.813333 47.786667 105.813333 105.813334 0 58.026667-47.786667 105.813333-105.813333 105.813333-58.026667 0-105.813333-47.786667-105.813333-105.813333 0-58.026667 47.786667-105.813333 105.813333-105.813334z m0 61.44c-23.893333 0-44.373333 20.48-44.373333 40.96 0 23.893333 20.48 44.373333 44.373333 44.373334s44.373333-20.48 44.373333-44.373334c0-20.48-20.48-40.96-44.373333-40.96z" fill="#FFD956" p-id="47872"></path></svg>