<?xml version="1.0" standalone="no"?><!DOCTYPE svg PUBLIC "-//W3C//DTD SVG 1.1//EN" "http://www.w3.org/Graphics/SVG/1.1/DTD/svg11.dtd"><svg t="1702374764656" class="icon" viewBox="0 0 1088 1024" version="1.1" xmlns="http://www.w3.org/2000/svg" p-id="55845" xmlns:xlink="http://www.w3.org/1999/xlink" width="212.5" height="200"><path d="M800 448c89.6 0 172.8 44.8 224 108.8V64c0-38.4-25.6-64-64-64H64C25.6 0 0 25.6 0 64v640c0 38.4 25.6 64 64 64h454.4c-6.4-12.8-6.4-19.2-6.4-32C512 576 640 448 800 448zM531.2 832H384c-38.4 0-64 25.6-64 64s25.6 64 64 64h236.8c-38.4-32-70.4-76.8-89.6-128z" fill="#1ABFBF" p-id="55846"></path><path d="M1024 556.8c-51.2-64-134.4-108.8-224-108.8C640 448 512 576 512 736c0 12.8 0 19.2 6.4 32 0 19.2 6.4 44.8 12.8 64 19.2 51.2 51.2 96 89.6 128 51.2 38.4 108.8 64 179.2 64 160 0 288-128 288-288 0-70.4-25.6-128-64-179.2z m-51.2 224c-19.2 6.4-32 19.2-44.8 32-6.4 12.8-12.8 32-6.4 51.2v6.4c0 6.4 0 19.2-6.4 25.6 0 0-6.4 6.4-25.6 12.8-19.2 12.8-25.6 12.8-25.6 12.8-6.4 0-19.2 0-25.6-6.4l-6.4-6.4c0-6.4-12.8-12.8-32-12.8s-32 6.4-44.8 19.2l-6.4 6.4c-6.4 6.4-19.2 6.4-25.6 6.4 0 0-6.4 0-25.6-12.8-19.2-12.8-25.6-12.8-25.6-12.8-6.4-6.4-12.8-19.2-6.4-25.6v-6.4c6.4-12.8 0-32-6.4-51.2-6.4-12.8-19.2-25.6-38.4-32h-6.4c-6.4 0-19.2-12.8-19.2-19.2v-25.6-25.6c0-6.4 12.8-19.2 19.2-19.2h6.4c12.8-6.4 25.6-12.8 38.4-32 6.4-12.8 12.8-32 6.4-51.2v-6.4c0-6.4 0-19.2 6.4-25.6 0 0 6.4-6.4 25.6-12.8 19.2-12.8 25.6-12.8 25.6-12.8 6.4 0 19.2 0 25.6 6.4l6.4 6.4c12.8 0 25.6 6.4 44.8 6.4 19.2 0 32-6.4 44.8-19.2l6.4-6.4c6.4-6.4 19.2-6.4 25.6-6.4 0 0 6.4 0 25.6 12.8s19.2 19.2 19.2 19.2c6.4 6.4 12.8 19.2 6.4 25.6v6.4c-6.4 12.8 0 32 6.4 51.2 6.4 12.8 19.2 25.6 38.4 32h6.4c6.4 0 19.2 12.8 19.2 19.2v51.2c-12.8 12.8-19.2 19.2-25.6 19.2z" fill="#FFFFFF" p-id="55847"></path><path d="M992 736v-25.6c0-6.4-12.8-19.2-19.2-19.2h-6.4c-12.8-6.4-25.6-12.8-38.4-32-6.4-12.8-12.8-32-6.4-51.2v-6.4c0-6.4 0-19.2-6.4-25.6 0 0-6.4-6.4-25.6-12.8s-25.6-12.8-25.6-12.8c-6.4 0-19.2 0-25.6 6.4l-6.4 6.4c0 6.4-12.8 12.8-32 12.8s-32-6.4-44.8-19.2l-6.4-6.4c-6.4-6.4-19.2-6.4-25.6-6.4 0 0-6.4 0-25.6 12.8-12.8 12.8-12.8 19.2-12.8 19.2-6.4 6.4-12.8 19.2-6.4 25.6v6.4c6.4 12.8 0 32-6.4 51.2-6.4 12.8-19.2 25.6-38.4 32h-6.4c-6.4 0-19.2 12.8-19.2 19.2v51.2c0 6.4 12.8 19.2 19.2 19.2h6.4c12.8 6.4 25.6 12.8 38.4 32 6.4 12.8 12.8 32 6.4 51.2v6.4c0 6.4 0 19.2 6.4 25.6 0 0 6.4 6.4 25.6 12.8 19.2 12.8 25.6 12.8 25.6 12.8 6.4 0 19.2 0 25.6-6.4l6.4-6.4c12.8-12.8 25.6-19.2 44.8-19.2 19.2 0 32 6.4 44.8 19.2l6.4 6.4c6.4 6.4 19.2 6.4 25.6 6.4 0 0 6.4 0 25.6-12.8 19.2-12.8 25.6-12.8 25.6-12.8 6.4-6.4 12.8-19.2 6.4-25.6v-6.4c-6.4-12.8 0-32 6.4-51.2 6.4-12.8 19.2-25.6 38.4-32h6.4c6.4 0 19.2-12.8 19.2-19.2-25.6 0-25.6-6.4-25.6-25.6z m-192 96c-51.2 0-96-44.8-96-96s44.8-96 96-96 96 44.8 96 96-44.8 96-96 96z" fill="#1ABFBF" p-id="55848"></path><path d="M896 736c0-51.2-44.8-96-96-96s-96 44.8-96 96 44.8 96 96 96 96-44.8 96-96z" fill="#FFFFFF" p-id="55849"></path></svg>