<?xml version="1.0" standalone="no"?><!DOCTYPE svg PUBLIC "-//W3C//DTD SVG 1.1//EN" "http://www.w3.org/Graphics/SVG/1.1/DTD/svg11.dtd"><svg t="1702374439294" class="icon" viewBox="0 0 1024 1024" version="1.1" xmlns="http://www.w3.org/2000/svg" p-id="32413" xmlns:xlink="http://www.w3.org/1999/xlink" width="200" height="200"><path d="M916.8896 788.2752c-15.9744 0-32.3072-2.1504-47.8208 0.4608-32.3072 5.376-53.248 25.5488-64.1024 56.4224-10.8032 30.72-14.592 33.4336-47.36 34.4576-13.824 0.4608-27.6992 0.4096-41.5744 0.7168-16.64 0.4096-27.0336-7.6288-32.4608-23.0912-19.0976-54.4768-53.5552-74.1376-109.568-62.3616-15.9744 3.3792-28.7744-0.9728-37.3248-14.7456-9.984-16.1792-19.3536-32.768-28.5184-49.4592-7.5264-13.7216-6.2976-27.3408 5.0176-38.0928 38.144-36.1472 35.2768-95.8976-1.28-127.7952-11.776-10.2912-11.8784-24.5248-4.5568-38.144 8.448-15.7184 17.664-31.0784 26.2144-46.7968 8.704-16.0256 22.2208-20.7872 39.3728-17.7152 55.6032 9.8816 87.2448-8.448 106.9568-61.952 7.8848-21.4528 14.4384-26.1632 36.9664-26.2656 16.7424-0.1024 33.4848 0.0512 50.2272 0 16.4352-0.0512 26.8288 7.6288 32.2048 23.3984 17.92 52.6336 54.784 73.8816 108.4416 62.2592 16.7424-3.6352 29.5936 0.5632 38.6048 15.1552 9.0624 14.6944 18.0224 29.4912 26.7776 44.3904 9.472 16.0256 6.912 30.72-5.3248 44.3392-34.56 38.4512-35.2256 81.5104-0.512 118.9888 13.5168 14.592 14.848 29.184 6.0928 45.6704-8.3968 15.7696-16.0256 32.2048-26.6752 46.3872-7.7824 10.6496-24.1664 14.4384-29.7984 13.7728z m-69.12-160.4608c0.0512-57.7024-46.8992-105.3696-103.8336-105.472-57.856-0.1024-105.216 46.592-105.3184 103.8848-0.1024 58.6752 46.8992 105.728 105.472 105.6256 55.7568-0.1536 103.5776-48.128 103.68-104.0384z" fill="#13227a" p-id="32414"></path><path d="M822.3744 126.8224H122.0096c-41.0112 0-74.24 33.2288-74.24 74.24v500.5312c0 41.0112 33.2288 74.24 74.24 74.24h256.768c-4.7616 8.3456-10.9056 16.7936-18.6368 22.8352-16.2304 12.6976-37.6832 24.8832-47.7184 41.216H292.352c-17.7152 0-32.0512 14.336-32.0512 32.0512s14.336 32.0512 32.0512 32.0512h310.8352c17.7152 0 32.0512-14.336 32.0512-32.0512s-14.336-32.0512-32.0512-32.0512h-18.8416c-9.984-16.3328-31.4368-28.5184-47.7184-41.216-7.7312-6.0416-13.8752-14.4896-18.6368-22.8352h304.384c41.0112 0 74.24-33.2288 74.24-74.24V201.0112c0-40.96-33.2288-74.1888-74.24-74.1888z m12.6976 409.8048c0 30.1568-24.4224 54.5792-54.5792 54.5792H163.8912c-30.1568 0-54.5792-24.4224-54.5792-54.5792V242.2784c0-30.1568 24.4224-54.5792 54.5792-54.5792h616.6528c30.1568 0 54.5792 24.4224 54.5792 54.5792v294.3488z" fill="#13227a" p-id="32415"></path><path d="M896.6144 701.5936v-240.128c-24.4224 3.328-45.0048-0.8192-61.5424-12.1856v87.3984c0 10.4448-2.9696 20.1728-8.0896 28.4672 13.0048 17.6128 20.7872 39.2704 20.7872 62.72-0.0512 55.9104-47.9232 103.8848-103.68 104.0384-58.5728 0.1536-105.5744-46.8992-105.472-105.6256 0-12.288 2.3552-24.064 6.3488-35.0208h-113.0496c15.5648 32.256 10.496 73.728-18.688 101.376-11.3152 10.752-12.544 24.3712-5.0176 38.0928 8.3456 15.2064 16.896 30.3104 25.9584 45.1072h288.256c40.96-0.0512 74.1888-33.28 74.1888-74.24z" fill="#13227a" p-id="32416"></path></svg>