<?xml version="1.0" standalone="no"?><!DOCTYPE svg PUBLIC "-//W3C//DTD SVG 1.1//EN" "http://www.w3.org/Graphics/SVG/1.1/DTD/svg11.dtd"><svg t="1702375418848" class="icon" viewBox="0 0 1024 1024" version="1.1" xmlns="http://www.w3.org/2000/svg" p-id="67023" xmlns:xlink="http://www.w3.org/1999/xlink" width="200" height="200"><path d="M734.48 926.81c-93.98 0-170.43-76.46-170.43-170.43 0-93.98 76.46-170.43 170.43-170.43 93.98 0 170.43 76.46 170.43 170.43 0 93.97-76.45 170.43-170.43 170.43z m0-301.88c-72.48 0-131.44 58.96-131.44 131.44 0 72.48 58.96 131.44 131.44 131.44 72.48 0 131.44-58.96 131.44-131.44 0-72.47-58.96-131.44-131.44-131.44z" fill="#7E75F5" p-id="67024"></path><path d="M706.36 96.97H234.35c-30.8-0.3-60.37 12.45-81.88 35.28-21.77 23.1-33.78 54.23-33.38 86.51V807.8c0 67.91 49.58 119.2 115.26 119.2h282.27l-0.02-0.02c18.14 0 29.42-10.95 29.42-28.48 0-17.52-11.26-28.42-29.42-28.42H234.33c-30.41 0-61.45-31.4-61.45-62.28V218.75c0-31.55 31.64-64.96 61.45-64.96h472.05c29.2 0 58.89 32.79 58.89 64.96v230.33c0 19.17 10.32 31.12 26.86 31.12 16.64 0 26.94-11.94 26.94-31.12V218.75c0.01-69.42-48.44-121.78-112.71-121.78z" fill="#7E75F5" p-id="67025"></path><path d="M588.19 536.11h-88.87c-6.25 0-11.33-5.07-11.33-11.33v-6.35c0-6.25 5.07-11.33 11.33-11.33h88.87c14.35 0 25.97-10.18 25.97-24.64s-11.63-25.57-25.97-25.57H542.4c-7.42 0-12.06-8.02-8.38-14.45l65.07-113.61c6.29-10.98 4.68-25.29-4.86-33.59-12.79-11.12-31.66-7.4-39.67 6.58L472.95 443.8c-3.37 5.85-11.79 5.92-15.24 0.11l-84.54-142.1c-8-13.98-26.88-17.7-39.67-6.58-9.54 8.3-11.14 22.61-4.85 33.59l65.07 113.6c3.69 6.44-0.96 14.45-8.38 14.45H335.2c-16.19 0-25.36 10.49-25.36 24.95 0 14.47 8.98 24.95 24.43 25.26h92.29c6.25 0 11.33 5.07 11.33 11.33v6.35c0 6.25-5.07 11.33-11.33 11.33h-90.74c-14.35 0-25.98 11.1-25.98 25.57 0 14.46 11.64 24.95 25.98 24.95h88.38c7.56 0 13.69 6.13 13.69 13.69v49.24c0 14.46 10.7 26.18 25.05 26.18 14.34 0 25.05-11.72 25.05-26.18V600.3c0-7.56 6.13-13.69 13.69-13.69h86.51c14.35 0 25.97-10.49 25.97-24.95 0-14.46-11.63-25.55-25.97-25.55z m0 0M702.7 787.72v-62.69c0-12.87 10.43-23.31 23.31-23.31 12.87 0 23.31 10.43 23.31 23.31v62.69c0 12.87-10.43 23.31-23.31 23.31-12.87 0-23.31-10.44-23.31-23.31z" fill="#7E75F5" p-id="67026"></path><path d="M726.01 764.41h62.69c12.87 0 23.31 10.43 23.31 23.31 0 12.87-10.43 23.31-23.31 23.31h-62.69c-12.87 0-23.31-10.43-23.31-23.31 0-12.87 10.44-23.31 23.31-23.31zM703.14 524.34h62.69c12.87 0 23.31 10.43 23.31 23.31 0 12.87-10.43 23.31-23.31 23.31h-62.69c-12.87 0-23.31-10.43-23.31-23.31 0-12.88 10.43-23.31 23.31-23.31z" fill="#7E75F5" p-id="67027"></path></svg>