<svg t="1702389028431" class="icon" viewBox="0 0 1024 1024" version="1.1" xmlns="http://www.w3.org/2000/svg" p-id="92099" width="200" height="200"><path d="M669.08 332.58c-29.12 0-52.8 23.68-52.8 52.8 0 25.7 18.44 47.16 42.8 51.84v60.22c0 83.52-67.96 151.46-151.48 151.46s-151.46-67.94-151.46-151.46v-60.22c24.34-4.68 42.8-26.14 42.8-51.84 0-29.12-23.68-52.8-52.8-52.8s-52.8 23.68-52.8 52.8c0 25.7 18.44 47.16 42.8 51.84v60.26c0.02 94.54 76.94 171.42 171.46 171.42 94.56 0 171.48-76.92 171.48-171.46v-60.22c24.34-4.68 42.8-26.14 42.8-51.84 0-29.12-23.68-52.8-52.8-52.8z m-322.94 42.8c-5.52 0-10 4.48-10 10v31.24c-13.22-4.24-22.8-16.64-22.8-31.24 0-18.08 14.7-32.8 32.8-32.8 18.08 0 32.8 14.72 32.8 32.8 0 14.6-9.6 27-22.8 31.24v-31.24c0-5.52-4.48-10-10-10z m332.94 41.24v-31.24c0-5.52-4.48-10-10-10s-10 4.48-10 10v31.24c-13.22-4.24-22.8-16.64-22.8-31.24 0-18.08 14.7-32.8 32.8-32.8 18.08 0 32.8 14.72 32.8 32.8 0 14.6-9.6 27-22.8 31.24z" fill="#23130D" p-id="92100"></path><path d="M999.98 569.6l-88.1-110.1c-0.02-0.02-0.02-0.02-0.02-0.04l-20.84-26.02a9.99 9.99 0 0 0-6.7-3.7l-35.08-3.9-6.58-168.6V67.08c0-0.46-0.08-0.92-0.14-1.36-0.02-0.2-0.02-0.42-0.06-0.62-0.08-0.38-0.22-0.74-0.36-1.12-0.08-0.24-0.12-0.5-0.22-0.74-0.08-0.18-0.2-0.34-0.3-0.52-0.2-0.4-0.38-0.8-0.64-1.18-0.1-0.14-0.24-0.28-0.34-0.42-0.3-0.38-0.58-0.76-0.92-1.1l-0.06-0.06c-0.16-0.16-0.34-0.26-0.52-0.4-0.32-0.26-0.62-0.54-0.96-0.76-0.26-0.18-0.54-0.3-0.82-0.44-0.3-0.16-0.58-0.34-0.9-0.46-0.32-0.14-0.66-0.22-0.98-0.32-0.3-0.08-0.58-0.18-0.9-0.24-0.4-0.08-0.8-0.1-1.22-0.12-0.22-0.02-0.42-0.06-0.66-0.06H182.54c-0.22 0-0.42 0.04-0.64 0.06-0.42 0.02-0.82 0.04-1.24 0.12-0.3 0.06-0.58 0.16-0.88 0.24-0.32 0.1-0.66 0.18-0.98 0.32-0.32 0.12-0.6 0.28-0.9 0.44-0.28 0.16-0.56 0.28-0.82 0.46-0.34 0.22-0.64 0.48-0.94 0.74-0.18 0.14-0.38 0.26-0.54 0.42l-0.06 0.06c-0.32 0.32-0.6 0.68-0.86 1.04-0.14 0.16-0.3 0.32-0.42 0.48-0.2 0.32-0.36 0.68-0.54 1.02-0.12 0.22-0.28 0.44-0.38 0.7-0.08 0.18-0.12 0.4-0.2 0.6-0.14 0.4-0.3 0.82-0.38 1.24-0.04 0.2-0.04 0.4-0.06 0.58-0.08 0.46-0.14 0.92-0.14 1.4 0 0.02-0.02 0.04-0.02 0.08v190.18l-9.98 256.44-22.88 2.54c-2.64 0.3-5.04 1.62-6.7 3.7l-108.96 136.16c-10.68 13.34-8.5 32.88 4.84 43.56l109.86 87.92c3.84 3.08 8.26 5.12 12.94 6.1l-6.32 162.7c-0.1 2.72 0.9 5.36 2.78 7.32 1.9 1.96 4.5 3.06 7.22 3.06h704.54c2.72 0 5.32-1.1 7.2-3.06 1.9-1.96 2.9-4.6 2.8-7.32l-3.36-86.12c0.04-0.36 0.12-0.72 0.12-1.1 0-0.72-0.1-1.42-0.24-2.1l-6.22-159.84c0.76 0.14 1.52 0.28 2.3 0.38a30.704 30.704 0 0 0 22.78-6.6l109.88-87.92c13.34-10.68 15.52-30.22 4.84-43.56zM809.08 77.16l-75.7 78.28c-0.2 0.2-0.34 0.44-0.52 0.66-0.22 0.26-0.46 0.52-0.64 0.8s-0.32 0.56-0.46 0.86c-0.16 0.28-0.34 0.58-0.46 0.88-0.12 0.3-0.2 0.62-0.28 0.92-0.1 0.32-0.2 0.62-0.26 0.92-0.06 0.32-0.08 0.64-0.12 0.96-0.02 0.32-0.06 0.64-0.06 0.96 0 0.32 0.04 0.62 0.06 0.94 0.04 0.32 0.06 0.64 0.12 0.96 0.06 0.32 0.16 0.62 0.26 0.92 0.08 0.32 0.16 0.62 0.28 0.94 0.12 0.3 0.3 0.58 0.46 0.88 0.14 0.28 0.28 0.58 0.46 0.84 0.18 0.28 0.42 0.54 0.64 0.82 0.18 0.2 0.32 0.44 0.52 0.64l75.7 78.3H206.12l75.72-78.3c0.18-0.2 0.32-0.42 0.5-0.64 0.22-0.26 0.46-0.52 0.66-0.82 0.16-0.26 0.3-0.56 0.44-0.84 0.16-0.3 0.34-0.58 0.46-0.9 0.12-0.28 0.2-0.6 0.3-0.9 0.08-0.32 0.18-0.62 0.26-0.94 0.06-0.32 0.06-0.64 0.1-0.94 0.02-0.32 0.08-0.64 0.08-0.96 0-0.32-0.06-0.64-0.08-0.96-0.04-0.32-0.04-0.64-0.12-0.96-0.06-0.3-0.16-0.6-0.24-0.92-0.1-0.3-0.18-0.62-0.3-0.92-0.12-0.3-0.28-0.58-0.44-0.88-0.16-0.28-0.28-0.58-0.48-0.86-0.18-0.28-0.4-0.52-0.62-0.78-0.18-0.22-0.32-0.46-0.52-0.68l-75.72-78.28h602.96z m13.58 14.72v141.04l-68.2-70.52 68.2-70.52z m-630.12 0l68.2 70.52-68.2 70.52V91.88z m-0.38 175.76h630.9l6.08 155.96-24.22-2.68h-0.06l-48.96-5.44c-5.5-0.62-10.42 3.34-11.04 8.84l-5.42 48.94c0 0.02-0.02 0.04-0.02 0.06l-8.8 79.4c-0.08 0.68-0.08 1.34-0.02 2 0.04 0.44 0.14 0.86 0.24 1.28 0.04 0.22 0.06 0.42 0.12 0.64 0.14 0.46 0.34 0.88 0.52 1.32 0.08 0.16 0.12 0.32 0.2 0.48 0.32 0.58 0.66 1.14 1.08 1.64l106.88 133.56 6.44 165.6H169.14l2.64-68c4.02-1.98 7.62-4.8 10.52-8.42l108.94-136.14c0.4-0.52 0.76-1.08 1.08-1.66 0.04-0.08 0.06-0.18 0.1-0.26 0.24-0.5 0.46-1.02 0.62-1.54 0.04-0.12 0.04-0.24 0.06-0.36 0.14-0.5 0.26-1.02 0.3-1.56 0.02-0.32 0-0.62 0-0.92 0-0.36 0.02-0.7-0.02-1.06l-3.74-33.7-5.06-45.72-0.02-0.02-5.42-48.98a9.948 9.948 0 0 0-3.7-6.7 9.94 9.94 0 0 0-7.34-2.14l-48.96 5.44h-0.06l-36.42 4.04 9.5-243.9zM159.3 774.38c-2.92 0.34-5.78-0.5-8.08-2.34l-109.86-87.9a11.016 11.016 0 0 1-1.72-15.46l88.12-110.12v-0.02L146 535.76l114.36-12.72 9.28 83.72 3.4 30.64-106.36 132.94a10.964 10.964 0 0 1-7.38 4.04z m6.44 172.46l2.62-67.6h678.5l2.62 67.6H165.74z m816.9-349.3l-109.86 87.92a10.832 10.832 0 0 1-8.08 2.34 10.908 10.908 0 0 1-7.38-4.06l-106.36-132.92 12.68-114.36 114.36 12.7 106.36 132.92c3.78 4.74 3.02 11.68-1.72 15.46z" fill="#23130D" p-id="92101"></path><path d="M822.66 91.88v141.04l-68.2-70.52zM260.74 162.4l-68.2 70.52V91.88z" fill="#F8D3C9" p-id="92102"></path><path d="M260.74 162.4l-68.2 70.52v-31.64l37.6-38.88-37.6-38.88V91.88zM754.46 162.4l68.2 70.52v-31.64l-37.6-38.88 37.6-38.88V91.88z" opacity=".1" p-id="92103"></path><path d="M269.64 606.76l-9.28-83.72L146 535.76l-18.24 22.78v0.02l-88.12 110.12a11.016 11.016 0 0 0 1.72 15.46l109.86 87.9c2.3 1.84 5.16 2.68 8.08 2.34 2.92-0.32 5.54-1.76 7.38-4.04l106.36-132.94-3.4-30.64z m-58.38 12.14c-19.02 0-34.48-15.48-34.48-34.5s15.46-34.5 34.48-34.5 34.5 15.48 34.5 34.5-15.48 34.5-34.5 34.5z" fill="#F9C139" p-id="92104"></path><path d="M849.48 946.84H165.74l2.62-67.6h678.5z" fill="#CC7B5A" p-id="92105"></path><path d="M837.24 889.24l1.844 47.6H176.136l1.844-47.6h659.26m9.62-10H168.36l-2.62 67.6h683.74l-2.62-67.6z" opacity=".2" p-id="92106"></path><path d="M984.36 582.08L878 449.16l-114.36-12.7-12.68 114.36 106.36 132.92a10.908 10.908 0 0 0 7.38 4.06c2.92 0.34 5.78-0.5 8.08-2.34l109.86-87.92c4.74-3.78 5.5-10.72 1.72-15.46z m-171.62-49.78c-19.02 0-34.5-15.46-34.5-34.48 0-19.02 15.48-34.5 34.5-34.5s34.48 15.48 34.48 34.5-15.46 34.48-34.48 34.48z" fill="#72AF5F" p-id="92107"></path><path d="M253.29 531.876l8.398 75.766 3.034 27.348-104.268 130.326a3.006 3.006 0 0 1-2.08 1.118 2.852 2.852 0 0 1-2.158-0.64l-109.854-87.896a3.016 3.016 0 0 1-0.478-4.22l88.12-110.12 1.646-2.074 14.524-18.138 103.116-11.47M211.26 626.9c23.434 0 42.5-19.066 42.5-42.5s-19.066-42.5-42.5-42.5c-23.424 0-42.48 19.066-42.48 42.5s19.056 42.5 42.48 42.5m49.1-103.86L146 535.76l-18.24 22.78v0.02l-88.12 110.12a11.016 11.016 0 0 0 1.72 15.46l109.86 87.9a10.846 10.846 0 0 0 8.08 2.34c2.92-0.32 5.54-1.76 7.38-4.04l106.36-132.94-3.4-30.64-9.28-83.72z m-49.1 95.86c-19.02 0-34.48-15.48-34.48-34.5s15.46-34.5 34.48-34.5 34.5 15.48 34.5 34.5-15.48 34.5-34.5 34.5zM770.71 445.294l103.114 11.452 104.282 130.322c1.036 1.3 0.834 3.192-0.464 4.226l-109.86 87.92a2.852 2.852 0 0 1-2.212 0.634 2.93 2.93 0 0 1-2.006-1.106l-104.29-130.334 11.436-103.114m42.03 95.006c23.424 0 42.48-19.056 42.48-42.48 0-23.434-19.056-42.5-42.48-42.5-23.434 0-42.5 19.066-42.5 42.5 0 23.424 19.066 42.48 42.5 42.48m-49.1-103.84l-12.68 114.36 106.36 132.92a10.908 10.908 0 0 0 7.38 4.06 10.854 10.854 0 0 0 8.08-2.34l109.86-87.92c4.74-3.78 5.5-10.72 1.72-15.46L878 449.16l-114.36-12.7z m49.1 95.84c-19.02 0-34.5-15.46-34.5-34.48 0-19.02 15.48-34.5 34.5-34.5s34.48 15.48 34.48 34.5-15.46 34.48-34.48 34.48z" opacity=".2" p-id="92108"></path><path d="M657.18 581.18c-4.54 8.1-9.72 15.8-15.5 23.02v255.04h30.66V545.08a169.134 169.134 0 0 1-15.16 36.1z m0-144.36c-5.56-1.28-10.78-3.44-15.5-6.34-5.92-3.6-11.08-8.32-15.16-13.9v174.54c5.74-7.24 10.82-15.04 15.16-23.28a150.58 150.58 0 0 0 17.4-70.4v-60.22c-0.64-0.12-1.28-0.26-1.9-0.4z m-46.18 197.32a169.314 169.314 0 0 1-15.16 10.26 159.78 159.78 0 0 1-15.5 8.28 154.748 154.748 0 0 1-15.16 6.26c-5.06 1.84-10.24 3.4-15.5 4.74-4.96 1.26-10.02 2.3-15.16 3.1-5.1 0.82-10.28 1.4-15.52 1.74-3.78 0.26-7.58 0.38-11.4 0.38-0.86 0-1.74 0-2.6-0.04-5.24-0.06-10.42-0.38-15.52-0.92-5.12-0.54-10.18-1.3-15.16-2.28-5.26-1.04-10.44-2.32-15.5-3.84-5.16-1.52-10.22-3.3-15.16-5.3a160.18 160.18 0 0 1-15.5-7.18 162.356 162.356 0 0 1-15.16-8.98 165.68 165.68 0 0 1-15.52-11.6v230.48h229.04V620.86a172.496 172.496 0 0 1-15.52 13.28z m-254.86-196.92v60.22c0 19.72 3.78 38.58 10.68 55.88v-119.38c-3.4 1.46-6.96 2.56-10.68 3.28z m10.68 157.98c-5.8-8.32-10.9-17.18-15.16-26.5a170.154 170.154 0 0 1-15.5-69.74c-0.02-0.5-0.02-0.98-0.02-1.48v-60.26c-5.38-1.04-10.48-2.88-15.14-5.44v427.46h61.32V614.36c-5.62-6-10.8-12.4-15.5-19.16z m290.36-14.02c-4.54 8.1-9.72 15.8-15.5 23.02v255.04h30.66V545.08a169.134 169.134 0 0 1-15.16 36.1z m0-144.36c-5.56-1.28-10.78-3.44-15.5-6.34-5.92-3.6-11.08-8.32-15.16-13.9v174.54c5.74-7.24 10.82-15.04 15.16-23.28a150.58 150.58 0 0 0 17.4-70.4v-60.22c-0.64-0.12-1.28-0.26-1.9-0.4z m-46.18 197.32a169.314 169.314 0 0 1-15.16 10.26 159.78 159.78 0 0 1-15.5 8.28 154.748 154.748 0 0 1-15.16 6.26c-5.06 1.84-10.24 3.4-15.5 4.74-4.96 1.26-10.02 2.3-15.16 3.1-5.1 0.82-10.28 1.4-15.52 1.74-3.78 0.26-7.58 0.38-11.4 0.38-0.86 0-1.74 0-2.6-0.04-5.24-0.06-10.42-0.38-15.52-0.92-5.12-0.54-10.18-1.3-15.16-2.28-5.26-1.04-10.44-2.32-15.5-3.84-5.16-1.52-10.22-3.3-15.16-5.3a160.18 160.18 0 0 1-15.5-7.18 162.356 162.356 0 0 1-15.16-8.98 165.68 165.68 0 0 1-15.52-11.6v230.48h229.04V620.86a172.496 172.496 0 0 1-15.52 13.28z m-254.86-196.92v60.22c0 19.72 3.78 38.58 10.68 55.88v-119.38c-3.4 1.46-6.96 2.56-10.68 3.28z m10.68 157.98c-5.8-8.32-10.9-17.18-15.16-26.5a170.154 170.154 0 0 1-15.5-69.74c-0.02-0.5-0.02-0.98-0.02-1.48v-60.26c-5.38-1.04-10.48-2.88-15.14-5.44v427.46h61.32V614.36c-5.62-6-10.8-12.4-15.5-19.16z m290.36-14.02c-4.54 8.1-9.72 15.8-15.5 23.02v255.04h30.66V545.08a169.134 169.134 0 0 1-15.16 36.1z m0-144.36c-5.56-1.28-10.78-3.44-15.5-6.34-5.92-3.6-11.08-8.32-15.16-13.9v174.54c5.74-7.24 10.82-15.04 15.16-23.28a150.58 150.58 0 0 0 17.4-70.4v-60.22c-0.64-0.12-1.28-0.26-1.9-0.4z m-46.18 197.32a169.314 169.314 0 0 1-15.16 10.26 159.78 159.78 0 0 1-15.5 8.28 154.748 154.748 0 0 1-15.16 6.26c-5.06 1.84-10.24 3.4-15.5 4.74-4.96 1.26-10.02 2.3-15.16 3.1-5.1 0.82-10.28 1.4-15.52 1.74-3.78 0.26-7.58 0.38-11.4 0.38-0.86 0-1.74 0-2.6-0.04-5.24-0.06-10.42-0.38-15.52-0.92-5.12-0.54-10.18-1.3-15.16-2.28-5.26-1.04-10.44-2.32-15.5-3.84-5.16-1.52-10.22-3.3-15.16-5.3a160.18 160.18 0 0 1-15.5-7.18 162.356 162.356 0 0 1-15.16-8.98 165.68 165.68 0 0 1-15.52-11.6v230.48h229.04V620.86a172.496 172.496 0 0 1-15.52 13.28z m-254.86-196.92v60.22c0 19.72 3.78 38.58 10.68 55.88v-119.38c-3.4 1.46-6.96 2.56-10.68 3.28z m10.68 157.98c-5.8-8.32-10.9-17.18-15.16-26.5a170.154 170.154 0 0 1-15.5-69.74c-0.02-0.5-0.02-0.98-0.02-1.48v-60.26c-5.38-1.04-10.48-2.88-15.14-5.44v427.46h61.32V614.36c-5.62-6-10.8-12.4-15.5-19.16z m290.36-14.02c-4.54 8.1-9.72 15.8-15.5 23.02a172.496 172.496 0 0 1-30.68 29.94 169.314 169.314 0 0 1-15.16 10.26 159.78 159.78 0 0 1-15.5 8.28 154.748 154.748 0 0 1-15.16 6.26c-5.06 1.84-10.24 3.4-15.5 4.74-4.96 1.26-10.02 2.3-15.16 3.1-5.1 0.82-10.28 1.4-15.52 1.74-3.78 0.26-7.58 0.38-11.4 0.38-0.86 0-1.74 0-2.6-0.04-5.24-0.06-10.42-0.38-15.52-0.92-5.12-0.54-10.18-1.3-15.16-2.28-5.26-1.04-10.44-2.32-15.5-3.84-5.16-1.52-10.22-3.3-15.16-5.3a160.18 160.18 0 0 1-15.5-7.18 162.356 162.356 0 0 1-15.16-8.98 165.68 165.68 0 0 1-15.52-11.6v230.48h274.86V545.08a169.134 169.134 0 0 1-15.16 36.1z m0-144.36c-5.56-1.28-10.78-3.44-15.5-6.34-5.92-3.6-11.08-8.32-15.16-13.9v174.54c5.74-7.24 10.82-15.04 15.16-23.28a150.58 150.58 0 0 0 17.4-70.4v-60.22c-0.64-0.12-1.28-0.26-1.9-0.4z m-301.04 0.4v60.22c0 19.72 3.78 38.58 10.68 55.88v-119.38c-3.4 1.46-6.96 2.56-10.68 3.28z m10.68 157.98c-5.8-8.32-10.9-17.18-15.16-26.5a170.154 170.154 0 0 1-15.5-69.74c-0.02-0.5-0.02-0.98-0.02-1.48v-60.26c-5.38-1.04-10.48-2.88-15.14-5.44v427.46h61.32V614.36c-5.62-6-10.8-12.4-15.5-19.16z m290.36-14.02c-4.54 8.1-9.72 15.8-15.5 23.02a172.496 172.496 0 0 1-30.68 29.94 169.314 169.314 0 0 1-15.16 10.26 159.78 159.78 0 0 1-15.5 8.28 154.748 154.748 0 0 1-15.16 6.26c-5.06 1.84-10.24 3.4-15.5 4.74-4.96 1.26-10.02 2.3-15.16 3.1-5.1 0.82-10.28 1.4-15.52 1.74-3.78 0.26-7.58 0.38-11.4 0.38-0.86 0-1.74 0-2.6-0.04-5.24-0.06-10.42-0.38-15.52-0.92-5.12-0.54-10.18-1.3-15.16-2.28-5.26-1.04-10.44-2.32-15.5-3.84-5.16-1.52-10.22-3.3-15.16-5.3a160.18 160.18 0 0 1-15.5-7.18 162.356 162.356 0 0 1-15.16-8.98 165.68 165.68 0 0 1-15.52-11.6 166.42 166.42 0 0 1-15.16-14.4c-5.62-6-10.8-12.4-15.5-19.16-5.8-8.32-10.9-17.18-15.16-26.5a170.154 170.154 0 0 1-15.5-69.74c-0.02-0.5-0.02-0.98-0.02-1.48v-60.26c-5.38-1.04-10.48-2.88-15.14-5.44v427.46h351.34V545.08a169.134 169.134 0 0 1-15.16 36.1z m0-59.76c1.26-7.82 1.9-15.82 1.9-23.98v-60.22a51.774 51.774 0 0 1-17.4-6.74c-5.92-3.6-11.08-8.32-15.16-13.9v174.54c5.74-7.24 10.82-15.04 15.16-23.28a150.194 150.194 0 0 0 15.5-46.42z m-274.86 61.04c4.54 6.68 9.62 12.98 15.16 18.84V397.72c-2.42 10.12-7.8 19.14-15.16 26.04a52.604 52.604 0 0 1-15.5 10.18c-3.4 1.46-6.96 2.56-10.68 3.28v60.22c0 19.72 3.78 38.58 10.68 55.88a151.1 151.1 0 0 0 15.5 29.14z m457.72 121.46l-0.4-10.28-15.12-18.9-15.16-18.94-15.5-19.36-15.16-18.96-15.5-19.36-14.02-17.52-15.5-19.38-0.92-1.14c-0.42-0.5-0.76-1.06-1.08-1.64-0.08-0.16-0.12-0.32-0.2-0.48-0.18-0.44-0.38-0.86-0.52-1.32-0.06-0.22-0.08-0.42-0.12-0.64-0.1-0.42-0.2-0.84-0.24-1.28-0.06-0.66-0.06-1.32 0.02-2l3.06-27.6 5.74-51.8c0-0.02 0.02-0.04 0.02-0.06l5.42-48.94c0.34-3.04 2-5.6 4.32-7.16 1.9-1.32 4.26-1.96 6.72-1.68l7.3 0.82 15.5 1.72 15.16 1.68 11 1.22h0.06l4.44 0.5 15.16 1.66 4.62 0.52-4.62-118.5-1.46-37.46H192.16l-8.2 210.52-1.3 33.38 1.3-0.14 15.52-1.72 15.16-1.68 4.44-0.5h0.06l11-1.22 15.16-1.68 15.5-1.72 7.3-0.82a9.898 9.898 0 0 1 7.34 2.14c2.08 1.64 3.4 4.06 3.7 6.7l5.42 48.98 0.02 0.02 5.06 45.72 0.68 6.12 3.06 27.58c0.04 0.36 0.02 0.7 0.02 1.06 0 0.3 0.02 0.6 0 0.92-0.04 0.54-0.16 1.06-0.3 1.56-0.02 0.12-0.02 0.24-0.06 0.36-0.16 0.52-0.38 1.04-0.62 1.54-0.04 0.08-0.06 0.18-0.1 0.26-0.32 0.58-0.68 1.14-1.08 1.66l-0.92 1.14-15.5 19.38-14.02 17.52-15.5 19.38-15.16 18.94-15.5 19.36-15.16 18.96-15.52 19.38-1.66 2.08a30.932 30.932 0 0 1-10.52 8.42l-2.64 68h676.94l-6.04-155.32z m-121.52-300a52.768 52.768 0 0 1-15.52 21.88c-4.48 3.76-9.6 6.8-15.16 8.92-2.82 1.08-5.74 1.92-8.76 2.5v60.22c0 16.52-2.34 32.5-6.74 47.64a169.134 169.134 0 0 1-15.16 36.1c-4.54 8.1-9.72 15.8-15.5 23.02a172.496 172.496 0 0 1-30.68 29.94 169.314 169.314 0 0 1-15.16 10.26 159.78 159.78 0 0 1-15.5 8.28 154.748 154.748 0 0 1-15.16 6.26c-5.06 1.84-10.24 3.4-15.5 4.74-4.96 1.26-10.02 2.3-15.16 3.1-5.1 0.82-10.28 1.4-15.52 1.74-3.78 0.26-7.58 0.38-11.4 0.38-0.86 0-1.74 0-2.6-0.04-5.24-0.06-10.42-0.38-15.52-0.92-5.12-0.54-10.18-1.3-15.16-2.28-5.26-1.04-10.44-2.32-15.5-3.84-5.16-1.52-10.22-3.3-15.16-5.3a160.18 160.18 0 0 1-15.5-7.18 162.356 162.356 0 0 1-15.16-8.98 165.68 165.68 0 0 1-15.52-11.6 166.42 166.42 0 0 1-15.16-14.4c-5.62-6-10.8-12.4-15.5-19.16-5.8-8.32-10.9-17.18-15.16-26.5a170.154 170.154 0 0 1-15.5-69.74c-0.02-0.5-0.02-0.98-0.02-1.48v-60.26c-5.38-1.04-10.48-2.88-15.14-5.44a52.81 52.81 0 0 1-15.52-12.74c-7.56-9.14-12.14-20.86-12.14-33.66 0-12.76 4.56-24.5 12.14-33.62 4.28-5.2 9.54-9.56 15.52-12.8 4.66-2.54 9.76-4.4 15.16-5.42 3.22-0.64 6.56-0.96 9.98-0.96 1.86 0 3.7 0.1 5.52 0.3 5.32 0.54 10.42 1.9 15.16 3.92 5.76 2.46 11 5.92 15.5 10.18 7.36 6.9 12.74 15.94 15.16 26.1 0.96 3.94 1.46 8.06 1.46 12.3s-0.5 8.38-1.46 12.34c-2.42 10.12-7.8 19.14-15.16 26.04a52.604 52.604 0 0 1-15.5 10.18c-3.4 1.46-6.96 2.56-10.68 3.28v60.22c0 19.72 3.78 38.58 10.68 55.88a151.1 151.1 0 0 0 15.5 29.14c4.54 6.68 9.62 12.98 15.16 18.84 4.82 5.14 10 9.92 15.52 14.32 4.82 3.88 9.88 7.46 15.16 10.72 4.98 3.1 10.16 5.9 15.5 8.38 4.92 2.32 9.96 4.36 15.16 6.12 5.04 1.72 10.22 3.18 15.5 4.38 4.96 1.12 10.02 1.98 15.16 2.6a152.774 152.774 0 0 0 29.52 0.66c5.26-0.4 10.42-1.06 15.52-1.96 5.14-0.94 10.2-2.12 15.16-3.58 5.3-1.52 10.46-3.32 15.5-5.42a146.52 146.52 0 0 0 15.16-7.26A150.878 150.878 0 0 0 611 608c5.6-5.2 10.78-10.84 15.52-16.88 5.74-7.24 10.82-15.04 15.16-23.28a150.58 150.58 0 0 0 17.4-70.4v-60.22a51.774 51.774 0 0 1-17.4-6.74c-5.92-3.6-11.08-8.32-15.16-13.9-6.44-8.74-10.24-19.52-10.24-31.2s3.8-22.48 10.24-31.22c4.1-5.56 9.24-10.3 15.16-13.9 4.74-2.88 9.94-5.04 15.5-6.3 3.82-0.92 7.8-1.38 11.9-1.38a52.544 52.544 0 0 1 18.76 3.44c5.56 2.12 10.68 5.16 15.16 8.96 6.9 5.76 12.3 13.28 15.52 21.86 2.18 5.76 3.36 12.02 3.36 18.54s-1.2 12.78-3.36 18.54z m-336.2 19.84a52.604 52.604 0 0 1-15.5 10.18c-3.4 1.46-6.96 2.56-10.68 3.28v60.22c0 19.72 3.78 38.58 10.68 55.88a151.1 151.1 0 0 0 15.5 29.14c4.54 6.68 9.62 12.98 15.16 18.84V397.72c-2.42 10.12-7.8 19.14-15.16 26.04z m274.86 13.06c-5.56-1.28-10.78-3.44-15.5-6.34-5.92-3.6-11.08-8.32-15.16-13.9v174.54c5.74-7.24 10.82-15.04 15.16-23.28a150.58 150.58 0 0 0 17.4-70.4v-60.22c-0.64-0.12-1.28-0.26-1.9-0.4z m0 144.36c-4.54 8.1-9.72 15.8-15.5 23.02a172.496 172.496 0 0 1-30.68 29.94 169.314 169.314 0 0 1-15.16 10.26 159.78 159.78 0 0 1-15.5 8.28 154.748 154.748 0 0 1-15.16 6.26c-5.06 1.84-10.24 3.4-15.5 4.74-4.96 1.26-10.02 2.3-15.16 3.1-5.1 0.82-10.28 1.4-15.52 1.74-3.78 0.26-7.58 0.38-11.4 0.38-0.86 0-1.74 0-2.6-0.04-5.24-0.06-10.42-0.38-15.52-0.92-5.12-0.54-10.18-1.3-15.16-2.28-5.26-1.04-10.44-2.32-15.5-3.84-5.16-1.52-10.22-3.3-15.16-5.3a160.18 160.18 0 0 1-15.5-7.18 162.356 162.356 0 0 1-15.16-8.98 165.68 165.68 0 0 1-15.52-11.6 166.42 166.42 0 0 1-15.16-14.4c-5.62-6-10.8-12.4-15.5-19.16-5.8-8.32-10.9-17.18-15.16-26.5a170.154 170.154 0 0 1-15.5-69.74c-0.02-0.5-0.02-0.98-0.02-1.48v-60.26c-5.38-1.04-10.48-2.88-15.14-5.44v427.46h351.34V545.08a169.134 169.134 0 0 1-15.16 36.1z m-290.36 14.02c-5.8-8.32-10.9-17.18-15.16-26.5a170.154 170.154 0 0 1-15.5-69.74c-0.02-0.5-0.02-0.98-0.02-1.48v-60.26c-5.38-1.04-10.48-2.88-15.14-5.44v427.46h61.32V614.36c-5.62-6-10.8-12.4-15.5-19.16z m-10.68-157.98v60.22c0 19.72 3.78 38.58 10.68 55.88v-119.38c-3.4 1.46-6.96 2.56-10.68 3.28z m301.04-0.4c-5.56-1.28-10.78-3.44-15.5-6.34-5.92-3.6-11.08-8.32-15.16-13.9v174.54c5.74-7.24 10.82-15.04 15.16-23.28a150.58 150.58 0 0 0 17.4-70.4v-60.22c-0.64-0.12-1.28-0.26-1.9-0.4z m0 144.36c-4.54 8.1-9.72 15.8-15.5 23.02a172.496 172.496 0 0 1-30.68 29.94 169.314 169.314 0 0 1-15.16 10.26 159.78 159.78 0 0 1-15.5 8.28 154.748 154.748 0 0 1-15.16 6.26c-5.06 1.84-10.24 3.4-15.5 4.74-4.96 1.26-10.02 2.3-15.16 3.1-5.1 0.82-10.28 1.4-15.52 1.74-3.78 0.26-7.58 0.38-11.4 0.38-0.86 0-1.74 0-2.6-0.04-5.24-0.06-10.42-0.38-15.52-0.92-5.12-0.54-10.18-1.3-15.16-2.28-5.26-1.04-10.44-2.32-15.5-3.84-5.16-1.52-10.22-3.3-15.16-5.3a160.18 160.18 0 0 1-15.5-7.18 162.356 162.356 0 0 1-15.16-8.98 165.68 165.68 0 0 1-15.52-11.6v230.48h274.86V545.08a169.134 169.134 0 0 1-15.16 36.1z m-290.36 14.02c-5.8-8.32-10.9-17.18-15.16-26.5a170.154 170.154 0 0 1-15.5-69.74c-0.02-0.5-0.02-0.98-0.02-1.48v-60.26c-5.38-1.04-10.48-2.88-15.14-5.44v427.46h61.32V614.36c-5.62-6-10.8-12.4-15.5-19.16z m-10.68-157.98v60.22c0 19.72 3.78 38.58 10.68 55.88v-119.38c-3.4 1.46-6.96 2.56-10.68 3.28z m254.86 196.92a169.314 169.314 0 0 1-15.16 10.26 159.78 159.78 0 0 1-15.5 8.28 154.748 154.748 0 0 1-15.16 6.26c-5.06 1.84-10.24 3.4-15.5 4.74-4.96 1.26-10.02 2.3-15.16 3.1-5.1 0.82-10.28 1.4-15.52 1.74-3.78 0.26-7.58 0.38-11.4 0.38-0.86 0-1.74 0-2.6-0.04-5.24-0.06-10.42-0.38-15.52-0.92-5.12-0.54-10.18-1.3-15.16-2.28-5.26-1.04-10.44-2.32-15.5-3.84-5.16-1.52-10.22-3.3-15.16-5.3a160.18 160.18 0 0 1-15.5-7.18 162.356 162.356 0 0 1-15.16-8.98 165.68 165.68 0 0 1-15.52-11.6v230.48h229.04V620.86a172.496 172.496 0 0 1-15.52 13.28z m46.18-197.32c-5.56-1.28-10.78-3.44-15.5-6.34-5.92-3.6-11.08-8.32-15.16-13.9v174.54c5.74-7.24 10.82-15.04 15.16-23.28a150.58 150.58 0 0 0 17.4-70.4v-60.22c-0.64-0.12-1.28-0.26-1.9-0.4z m0 144.36c-4.54 8.1-9.72 15.8-15.5 23.02v255.04h30.66V545.08a169.134 169.134 0 0 1-15.16 36.1z m-290.36 14.02c-5.8-8.32-10.9-17.18-15.16-26.5a170.154 170.154 0 0 1-15.5-69.74c-0.02-0.5-0.02-0.98-0.02-1.48v-60.26c-5.38-1.04-10.48-2.88-15.14-5.44v427.46h61.32V614.36c-5.62-6-10.8-12.4-15.5-19.16z m-10.68-157.98v60.22c0 19.72 3.78 38.58 10.68 55.88v-119.38c-3.4 1.46-6.96 2.56-10.68 3.28z m254.86 196.92a169.314 169.314 0 0 1-15.16 10.26 159.78 159.78 0 0 1-15.5 8.28 154.748 154.748 0 0 1-15.16 6.26c-5.06 1.84-10.24 3.4-15.5 4.74-4.96 1.26-10.02 2.3-15.16 3.1-5.1 0.82-10.28 1.4-15.52 1.74-3.78 0.26-7.58 0.38-11.4 0.38-0.86 0-1.74 0-2.6-0.04-5.24-0.06-10.42-0.38-15.52-0.92-5.12-0.54-10.18-1.3-15.16-2.28-5.26-1.04-10.44-2.32-15.5-3.84-5.16-1.52-10.22-3.3-15.16-5.3a160.18 160.18 0 0 1-15.5-7.18 162.356 162.356 0 0 1-15.16-8.98 165.68 165.68 0 0 1-15.52-11.6v230.48h229.04V620.86a172.496 172.496 0 0 1-15.52 13.28z m46.18-197.32c-5.56-1.28-10.78-3.44-15.5-6.34-5.92-3.6-11.08-8.32-15.16-13.9v174.54c5.74-7.24 10.82-15.04 15.16-23.28a150.58 150.58 0 0 0 17.4-70.4v-60.22c-0.64-0.12-1.28-0.26-1.9-0.4z m0 144.36c-4.54 8.1-9.72 15.8-15.5 23.02v255.04h30.66V545.08a169.134 169.134 0 0 1-15.16 36.1z m-301.04-143.96v60.22c0 19.72 3.78 38.58 10.68 55.88v-119.38c-3.4 1.46-6.96 2.56-10.68 3.28z m10.68 157.98c-5.8-8.32-10.9-17.18-15.16-26.5a170.154 170.154 0 0 1-15.5-69.74c-0.02-0.5-0.02-0.98-0.02-1.48v-60.26c-5.38-1.04-10.48-2.88-15.14-5.44v427.46h61.32V614.36c-5.62-6-10.8-12.4-15.5-19.16z m244.18 38.94a169.314 169.314 0 0 1-15.16 10.26 159.78 159.78 0 0 1-15.5 8.28 154.748 154.748 0 0 1-15.16 6.26c-5.06 1.84-10.24 3.4-15.5 4.74-4.96 1.26-10.02 2.3-15.16 3.1-5.1 0.82-10.28 1.4-15.52 1.74-3.78 0.26-7.58 0.38-11.4 0.38-0.86 0-1.74 0-2.6-0.04-5.24-0.06-10.42-0.38-15.52-0.92-5.12-0.54-10.18-1.3-15.16-2.28-5.26-1.04-10.44-2.32-15.5-3.84-5.16-1.52-10.22-3.3-15.16-5.3a160.18 160.18 0 0 1-15.5-7.18 162.356 162.356 0 0 1-15.16-8.98 165.68 165.68 0 0 1-15.52-11.6v230.48h229.04V620.86a172.496 172.496 0 0 1-15.52 13.28z m46.18-197.32c-5.56-1.28-10.78-3.44-15.5-6.34-5.92-3.6-11.08-8.32-15.16-13.9v174.54c5.74-7.24 10.82-15.04 15.16-23.28a150.58 150.58 0 0 0 17.4-70.4v-60.22c-0.64-0.12-1.28-0.26-1.9-0.4z m0 144.36c-4.54 8.1-9.72 15.8-15.5 23.02v255.04h30.66V545.08a169.134 169.134 0 0 1-15.16 36.1z" fill="#F8D3C9" p-id="92109"></path><path d="M813.442 277.64l5.252 134.744-12.676-1.402-0.582-0.058-48.418-5.38a20.226 20.226 0 0 0-2.256-0.126c-10.17 0-18.7 7.646-19.844 17.802l-5.226 47.196-0.274 0.552v1.8l-8.732 78.784a19.778 19.778 0 0 0-0.048 4.074 17.2 17.2 0 0 0 0.386 2.332c0.05 0.302 0.136 0.77 0.286 1.314l0.038 0.14 0.042 0.14c0.26 0.852 0.548 1.528 0.74 1.976l0.092 0.216 0.094 0.228c0.094 0.236 0.234 0.57 0.422 0.948l0.088 0.176 0.096 0.172c0.468 0.85 1.126 1.968 2.084 3.128l104.768 130.922 5.908 151.922H179.536l2.026-52.184a40.512 40.512 0 0 0 8.546-7.988l108.94-136.14 0.06-0.074 0.058-0.076c0.692-0.9 1.334-1.884 1.91-2.926l0.1-0.18 0.092-0.184c0.154-0.308 0.276-0.59 0.374-0.836 0.386-0.844 0.696-1.648 0.942-2.44 0.158-0.5 0.26-0.952 0.328-1.338 0.186-0.752 0.38-1.72 0.462-2.832l0.004-0.056 0.004-0.056c0.032-0.506 0.032-0.992 0.022-1.47l-0.002-0.076 0.002-0.126a15.74 15.74 0 0 0-0.082-2.036l-3.74-33.696-5.06-45.72-0.404-3.482-5.04-45.546a20.08 20.08 0 0 0-7.394-13.384 19.996 19.996 0 0 0-14.686-4.266l-48.41 5.378h-0.058l-0.55 0.06-24.872 2.76 8.674-222.68h611.66m-164.362 167.266v52.528c0 78.002-63.468 141.46-141.48 141.46-78.002 0-141.46-63.458-141.46-141.5v-52.49c25.232-8.466 42.8-32.308 42.8-59.53 0-34.628-28.172-62.8-62.8-62.8s-62.8 28.172-62.8 62.8c0 27.228 17.568 51.068 42.8 59.532v52.57c0.022 100.034 81.424 181.418 181.46 181.418 100.068 0 181.48-81.402 181.48-181.46v-52.53c25.232-8.466 42.8-32.308 42.8-59.53 0-34.628-28.172-62.8-62.8-62.8s-62.8 28.172-62.8 62.8c0 27.228 17.566 51.068 42.8 59.532m173.98-177.272H192.16l-9.5 243.9 36.42-4.04h0.06l48.96-5.44a9.96 9.96 0 0 1 7.34 2.14c2.08 1.64 3.4 4.06 3.7 6.7l5.42 48.98 0.02 0.02 5.06 45.72 3.74 33.7c0.04 0.36 0.02 0.7 0.02 1.06 0 0.3 0.02 0.6 0 0.92-0.04 0.54-0.16 1.06-0.3 1.56-0.02 0.12-0.02 0.24-0.06 0.36-0.16 0.52-0.38 1.04-0.62 1.54-0.04 0.08-0.06 0.18-0.1 0.26-0.32 0.58-0.68 1.14-1.08 1.66l-108.94 136.14a30.932 30.932 0 0 1-10.52 8.42l-2.64 68h676.94l-6.44-165.6-106.88-133.56c-0.42-0.5-0.76-1.06-1.08-1.64-0.08-0.16-0.12-0.32-0.2-0.48-0.18-0.44-0.38-0.86-0.52-1.32-0.06-0.22-0.08-0.42-0.12-0.64-0.1-0.42-0.2-0.84-0.24-1.28-0.06-0.66-0.06-1.32 0.02-2l8.8-79.4c0-0.02 0.02-0.04 0.02-0.06l5.42-48.94a9.994 9.994 0 0 1 11.04-8.84l48.96 5.44h0.06l24.22 2.68-6.08-155.96zM507.6 648.9c83.52 0 151.48-67.94 151.48-151.46v-60.22c-24.36-4.68-42.8-26.14-42.8-51.84 0-29.12 23.68-52.8 52.8-52.8 29.12 0 52.8 23.68 52.8 52.8 0 25.7-18.46 47.16-42.8 51.84v60.22c0 94.54-76.92 171.46-171.48 171.46-94.52 0-171.44-76.88-171.46-171.42v-60.26c-24.36-4.68-42.8-26.14-42.8-51.84 0-29.12 23.68-52.8 52.8-52.8s52.8 23.68 52.8 52.8c0 25.7-18.46 47.16-42.8 51.84v60.22c0 83.52 67.94 151.46 151.46 151.46z" opacity=".2" p-id="92110"></path><path d="M378.94 385.38c0 14.6-9.6 27-22.8 31.24v-31.24c0-5.52-4.48-10-10-10s-10 4.48-10 10v31.24c-13.22-4.24-22.8-16.64-22.8-31.24 0-18.08 14.7-32.8 32.8-32.8 18.08 0 32.8 14.72 32.8 32.8zM701.88 385.38c0 14.6-9.6 27-22.8 31.24v-31.24c0-5.52-4.48-10-10-10s-10 4.48-10 10v31.24c-13.22-4.24-22.8-16.64-22.8-31.24 0-18.08 14.7-32.8 32.8-32.8 18.08 0 32.8 14.72 32.8 32.8z" fill="#E1E1E5" p-id="92111"></path><path d="M733.38 169.34l75.7 78.3H206.12l75.72-78.3c0.18-0.2 0.32-0.42 0.5-0.64 0.22-0.26 0.46-0.52 0.66-0.82 0.16-0.26 0.3-0.56 0.44-0.84 0.16-0.3 0.34-0.58 0.46-0.9 0.12-0.28 0.2-0.6 0.3-0.9 0.08-0.32 0.18-0.62 0.26-0.94 0.06-0.32 0.06-0.64 0.1-0.94 0.02-0.32 0.08-0.64 0.08-0.96 0-0.32-0.06-0.64-0.08-0.96-0.04-0.32-0.04-0.64-0.12-0.96-0.06-0.3-0.16-0.6-0.24-0.92-0.1-0.3-0.18-0.62-0.3-0.92-0.12-0.3-0.28-0.58-0.44-0.88-0.16-0.28-0.28-0.58-0.48-0.86-0.18-0.28-0.4-0.52-0.62-0.78-0.18-0.22-0.32-0.46-0.52-0.68l-75.72-78.28h602.96l-75.7 78.28c-0.2 0.2-0.34 0.44-0.52 0.66-0.22 0.26-0.46 0.52-0.64 0.8s-0.32 0.56-0.46 0.86c-0.16 0.28-0.34 0.58-0.46 0.88-0.12 0.3-0.2 0.62-0.28 0.92-0.1 0.32-0.2 0.62-0.26 0.92-0.06 0.32-0.08 0.64-0.12 0.96-0.02 0.32-0.06 0.64-0.06 0.96 0 0.32 0.04 0.62 0.06 0.94 0.04 0.32 0.06 0.64 0.12 0.96 0.06 0.32 0.16 0.62 0.26 0.92 0.08 0.32 0.16 0.62 0.28 0.94 0.12 0.3 0.3 0.58 0.46 0.88 0.14 0.28 0.28 0.58 0.46 0.84 0.18 0.28 0.42 0.54 0.64 0.82 0.18 0.2 0.32 0.44 0.52 0.64z" fill="#E59D89" p-id="92112"></path><path d="M780.72 218.3l28.36 29.34H206.12l28.38-29.34z" opacity=".2" p-id="92113"></path><path d="M318.44 161.44c0.02 0.32 0.08 0.64 0.08 0.96 0 0.32-0.06 0.64-0.08 0.96-0.04 0.3-0.04 0.62-0.08 0.94-0.06 0.32-0.16 0.62-0.22 0.94-0.08 0.3-0.16 0.62-0.26 0.9-0.1 0.32-0.26 0.6-0.38 0.9-0.12 0.28-0.24 0.58-0.38 0.84-0.16 0.3-0.38 0.56-0.56 0.82-0.16 0.22-0.28 0.44-0.42 0.64l-64.22 78.3h-45.8l75.72-78.3c0.18-0.2 0.32-0.42 0.5-0.64 0.22-0.26 0.46-0.52 0.66-0.82 0.16-0.26 0.3-0.56 0.44-0.84 0.16-0.3 0.34-0.58 0.46-0.9 0.12-0.28 0.2-0.6 0.3-0.9 0.08-0.32 0.18-0.62 0.26-0.94 0.06-0.32 0.06-0.64 0.1-0.94 0.02-0.32 0.08-0.64 0.08-0.96 0-0.32-0.06-0.64-0.08-0.96-0.04-0.32-0.04-0.64-0.12-0.96-0.06-0.3-0.16-0.6-0.24-0.92-0.1-0.3-0.18-0.62-0.3-0.92-0.12-0.3-0.28-0.58-0.44-0.88-0.16-0.28-0.28-0.58-0.48-0.86-0.18-0.28-0.4-0.52-0.62-0.78-0.18-0.22-0.32-0.46-0.52-0.68l-75.72-78.28h45.8l64.22 78.28c0.16 0.22 0.28 0.46 0.44 0.68 0.18 0.26 0.38 0.5 0.52 0.78 0.18 0.28 0.28 0.58 0.42 0.86 0.12 0.3 0.26 0.58 0.36 0.88 0.1 0.3 0.18 0.62 0.26 0.92 0.06 0.32 0.16 0.62 0.2 0.92 0.06 0.32 0.06 0.64 0.1 0.96zM733.38 169.34l75.7 78.3h-45.8l-64.2-78.3c-0.16-0.2-0.28-0.44-0.44-0.64-0.18-0.28-0.4-0.54-0.54-0.82-0.16-0.26-0.28-0.56-0.4-0.84-0.12-0.3-0.28-0.58-0.38-0.88a8.1 8.1 0 0 1-0.24-0.94c-0.08-0.3-0.18-0.6-0.22-0.92-0.06-0.32-0.06-0.64-0.1-0.96-0.02-0.32-0.06-0.62-0.06-0.94 0-0.32 0.04-0.64 0.06-0.96 0.04-0.32 0.04-0.64 0.1-0.96 0.04-0.3 0.14-0.6 0.22-0.92 0.06-0.3 0.14-0.62 0.24-0.92 0.1-0.3 0.26-0.6 0.38-0.88 0.12-0.3 0.24-0.58 0.4-0.86 0.14-0.28 0.36-0.54 0.54-0.8 0.16-0.22 0.28-0.46 0.44-0.66l64.2-78.28h45.8l-75.7 78.28c-0.2 0.2-0.34 0.44-0.52 0.66-0.22 0.26-0.46 0.52-0.64 0.8s-0.32 0.56-0.46 0.86c-0.16 0.28-0.34 0.58-0.46 0.88-0.12 0.3-0.2 0.62-0.28 0.92-0.1 0.32-0.2 0.62-0.26 0.92-0.06 0.32-0.08 0.64-0.12 0.96-0.02 0.32-0.06 0.64-0.06 0.96 0 0.32 0.04 0.62 0.06 0.94 0.04 0.32 0.06 0.64 0.12 0.96 0.06 0.32 0.16 0.62 0.26 0.92 0.08 0.32 0.16 0.62 0.28 0.94 0.12 0.3 0.3 0.58 0.46 0.88 0.14 0.28 0.28 0.58 0.46 0.84 0.18 0.28 0.42 0.54 0.64 0.82 0.18 0.2 0.32 0.44 0.52 0.64z" fill="#FFFFFF" opacity=".2" p-id="92114"></path><path d="M812.74 463.32c-19.02 0-34.5 15.48-34.5 34.5s15.48 34.48 34.5 34.48 34.48-15.46 34.48-34.48c0-19.02-15.46-34.5-34.48-34.5z m0 48.98c-8 0-14.5-6.5-14.5-14.48 0-8 6.5-14.5 14.5-14.5 7.98 0 14.48 6.5 14.48 14.5 0 7.98-6.5 14.48-14.48 14.48z" fill="#23130D" p-id="92115"></path><path d="M827.22 497.82c0 7.98-6.5 14.48-14.48 14.48-8 0-14.5-6.5-14.5-14.48 0-8 6.5-14.5 14.5-14.5 7.98 0 14.48 6.5 14.48 14.5z" fill="#E1E1E5" p-id="92116"></path><path d="M211.26 549.9c-19.02 0-34.48 15.48-34.48 34.5s15.46 34.5 34.48 34.5 34.5-15.48 34.5-34.5-15.48-34.5-34.5-34.5z m0 49c-7.98 0-14.48-6.52-14.48-14.5 0-8 6.5-14.5 14.48-14.5 8 0 14.5 6.5 14.5 14.5 0 7.98-6.5 14.5-14.5 14.5z" fill="#23130D" p-id="92117"></path><path d="M225.76 584.4c0 7.98-6.5 14.5-14.5 14.5-7.98 0-14.48-6.52-14.48-14.5 0-8 6.5-14.5 14.48-14.5 8 0 14.5 6.5 14.5 14.5z" fill="#E1E1E5" p-id="92118"></path><path d="M168.8 879.24v67.6h-3.06l2.62-67.6zM199.48 267.64v242.04l-15.52 1.72v-33.24l8.2-210.52zM183.96 780.74l15.52-19.38v185.48h-15.52zM230.14 267.64v238.64l-11 1.22h-0.06l-4.44 0.5V267.64zM214.64 742.4l15.5-19.36v223.8h-15.5zM260.8 267.64v235.24l-15.5 1.72V267.64zM245.3 704.1l15.5-19.38v262.12h-15.5z" opacity=".1" p-id="92119"></path><path d="M290.32 267.64v344.1l-0.68-6.12-5.06-45.72-0.02-0.02-5.42-48.98a9.948 9.948 0 0 0-4.32-7.16V267.64h15.5zM274.82 667.2l15.5-19.38v299.02h-15.5zM321 267.64v71.32c-5.98 3.24-11.24 7.6-15.52 12.8v-84.12h15.52zM321 431.78v515.06h-15.52v-527.8c4.3 5.18 9.56 9.52 15.52 12.74zM351.66 267.64v65.24c-1.82-0.2-3.66-0.3-5.52-0.3-3.42 0-6.76 0.32-9.98 0.96v-65.9h15.5zM351.66 568.7v378.14h-15.5V498.96c0.2 24.86 5.74 48.46 15.5 69.74zM382.32 267.64v79.34a52.604 52.604 0 0 0-15.5-10.18v-69.16h15.5zM366.82 433.94c5.76-2.46 11-5.92 15.5-10.18v158.7a151.1 151.1 0 0 1-15.5-29.14v-119.38zM382.32 614.36v332.48h-15.5V595.2c4.7 6.76 9.88 13.16 15.5 19.16zM413 267.64v347.98c-5.52-4.4-10.7-9.18-15.52-14.32V397.72c0.96-3.96 1.46-8.1 1.46-12.34s-0.5-8.36-1.46-12.3v-105.44h15.52zM413 640.36v306.48h-15.52V628.76a165.68 165.68 0 0 0 15.52 11.6zM443.66 267.64v367.08a144.554 144.554 0 0 1-15.5-8.38V267.64h15.5zM443.66 656.52v290.32h-15.5V649.34a160.18 160.18 0 0 0 15.5 7.18zM474.32 267.64v377.58a152.98 152.98 0 0 1-15.5-4.38v-373.2h15.5zM474.32 665.66v281.18h-15.5V661.82c5.06 1.52 10.24 2.8 15.5 3.84zM505 267.64v381.24c-5.24-0.1-10.42-0.44-15.52-1.06V267.64h15.52zM505 668.86v277.98h-15.52V667.94c5.1 0.54 10.28 0.86 15.52 0.92z" opacity=".1" p-id="92120"></path><path d="M534.52 267.64v378.88c-5.1 0.9-10.26 1.56-15.52 1.96V267.64h15.52zM534.52 666.78v280.06h-15.52V668.52c5.24-0.34 10.42-0.92 15.52-1.74zM565.18 267.64v369.88c-5.04 2.1-10.2 3.9-15.5 5.42V267.64h15.5zM565.18 658.94v287.9h-15.5V663.68c5.26-1.34 10.44-2.9 15.5-4.74zM595.84 267.64v352.84a149.734 149.734 0 0 1-15.5 9.78V267.64h15.5zM595.84 644.4v302.44h-15.5V652.68a159.78 159.78 0 0 0 15.5-8.28zM626.52 354.16c-6.44 8.74-10.24 19.54-10.24 31.22s3.8 22.46 10.24 31.2v174.54a146.086 146.086 0 0 1-15.52 16.88V267.64h15.52v86.52zM626.52 620.86v325.98h-15.52V634.14c5.44-4.12 10.62-8.56 15.52-13.28zM657.18 267.64v66.32c-5.56 1.26-10.76 3.42-15.5 6.3v-72.62h15.5zM657.18 436.82v84.6a150.194 150.194 0 0 1-15.5 46.42v-137.36c4.72 2.9 9.94 5.06 15.5 6.34zM657.18 581.18v365.66h-15.5V604.2c5.78-7.22 10.96-14.92 15.5-23.02zM687.84 267.64v68.38c-4.86-1.86-10.08-3-15.5-3.34v-65.04h15.5zM687.84 434.72v512.12h-15.5V545.08c4.4-15.14 6.74-31.12 6.74-47.64v-60.22c3.02-0.58 5.94-1.42 8.76-2.5zM718.52 267.64v99.2a52.576 52.576 0 0 0-15.52-21.86v-77.34h15.52zM718.52 403.92v542.92h-15.52V425.8c6.9-5.78 12.3-13.3 15.52-21.88zM749.18 267.64v149.52a9.932 9.932 0 0 0-4.32 7.16l-5.42 48.94c0 0.02-0.02 0.04-0.02 0.06l-5.74 51.8V267.64h15.5zM733.68 561.22l15.5 19.38v366.24h-15.5z" opacity=".1" p-id="92121"></path><path d="M778.7 267.64v150.38l-15.5-1.72v-148.66zM763.2 598.12l15.5 19.36v329.36h-15.5zM809.36 267.64v153.78l-4.44-0.5h-0.06l-11-1.22v-152.06zM793.86 636.44l15.5 19.36v291.04h-15.5zM829.14 423.6l-4.62-0.52v-117.98zM840.04 703.92v242.92h-15.52V674.74l15.12 18.9z" opacity=".1" p-id="92122"></path></svg>
